<?xml version="1.0" encoding="utf-8"?>
<!-- Generator: Adobe Illustrator 17.0.0, SVG Export Plug-In . SVG Version: 6.00 Build 0)  -->
<!DOCTYPE svg PUBLIC "-//W3C//DTD SVG 1.1//EN" "http://www.w3.org/Graphics/SVG/1.1/DTD/svg11.dtd">
<svg version="1.1" id="Layer_1" xmlns="http://www.w3.org/2000/svg" xmlns:xlink="http://www.w3.org/1999/xlink" x="0px" y="0px"
	 width="27px" height="16.769px" viewBox="0 0 27 16.769" enable-background="new 0 0 27 16.769" xml:space="preserve">
<path fill="#F47920" d="M0,0v2.051v2.848v11.87h0.828h0.297h2.984h1.032h2.968h1.032h2.968h1.032h2.733h0.885H17V4.898V2.051V0H0z
	 M15.875,11.998h-2.733V9.03h2.733V11.998z M1.125,9.03h2.984v2.968H1.125V9.03z M5.141,9.03h2.968v2.968H5.141V9.03z M5.141,7.998
	v-3.1h2.968v3.099H5.141V7.998z M12.109,11.998H9.141V9.03h2.968C12.109,9.03,12.109,11.998,12.109,11.998z M9.141,7.998v-3.1h2.968
	v3.099H9.141V7.998z M4.109,4.898v3.099H1.125V4.898H4.109z M1.125,15.643V13.03h2.984v2.613H1.125z M5.141,15.643V13.03h2.968
	v2.613H5.141z M13.141,15.643V13.03h2.733v2.613H13.141z M15.875,7.998h-2.733v-3.1h2.733V7.998z"/>
</svg>
