<?xml version="1.0" encoding="utf-8"?>
<!-- Generator: Adobe Illustrator 19.2.1, SVG Export Plug-In . SVG Version: 6.00 Build 0)  -->
<svg version="1.1" id="Layer_1" xmlns="http://www.w3.org/2000/svg" xmlns:xlink="http://www.w3.org/1999/xlink" x="0px" y="0px"
	 width="27px" height="22px" viewBox="0 0 27 22" style="enable-background:new 0 0 27 22;" xml:space="preserve">
<style type="text/css">
	.st0{fill:#F47920;}
	.st1{fill:#FFFFFF;}
</style>
<g>
	<path class="st0" d="M7.7,21.9C7.7,21.9,7.8,21.9,7.7,21.9C7.9,22,7.9,22,8,22s0.1,0,0.2,0c0,0,0.1,0,0.1-0.1
		C14.8,16.7,16,10.2,16,8c0-3.7-2.5-6.8-5.9-7.7c0,0-0.1,0-0.1,0C9.4,0.1,8.7,0,8,0S6.6,0.1,6,0.2c0,0-0.1,0-0.1,0
		C2.5,1.2,0,4.3,0,8C0,10.2,1.4,16.9,7.7,21.9z"/>
	<path class="st1" d="M7.4,4.5h1.2l3.2,7.3h-1.3L9.7,10H6.3l-0.7,1.7H4.2L7.4,4.5z M9.2,8.9L8,6L6.7,8.9H9.2z"/>
</g>
</svg>
